<?xml version="1.0" encoding="UTF-8" standalone="no"?><svg xmlns="http://www.w3.org/2000/svg" fill="#000000" height="346.7pt" version="1.1" viewBox="0 0 488.8 346.7" width="488.8pt">
 <g fill="#c9ef25" id="change1_1">
  <path d="m122.56 331.59c0.01-0.16-19.99-0.2-21.79-0.2h-47.743-35.566-2.492c-0.106 0 0.078 0.35 0.078-0.01v-3.9-148.26-156.71c0-1.088 0.156-7.428-0.129-7.428h16.719 87.013 81.47 8.68c2.4 0 1.13 0.066 1.7-1.996-1.07 3.844-2.13 7.687-3.2 11.531-14.47 52.246-28.94 104.49-43.41 156.74-13.25 47.8-26.49 95.6-39.73 143.41-0.45 1.61-0.89 3.21-1.34 4.82-2.58 9.34 11.89 13.3 14.47 3.99 10.53-38.03 21.07-76.05 31.6-114.07 15.98-57.69 31.96-115.38 47.93-173.07 2.11-7.581 4.21-15.167 6.31-22.749 1.69-6.105 3.68-11.253-0.59-17.296-5.35-7.563-14.4-6.313-22.42-6.313-11.42 0.000031-22.85 0.000031-34.27 0.000031h-150.93c-8.213 0-14.873 6.8594-14.873 15.012-0.000125 1.301-0.000125 2.597-0.000125 3.898v20.856 78.532 181.03 24.55c0 5.53-0.63672 11.34 2.7461 16.12 6.1718 8.73 19.98 6.31 29.301 6.31h46.648 35.448 7.97c8.81 0 14.64-6.35 15.4-14.8 0.86-9.64-14.15-9.56-15 0" fill="inherit"/>
  <path d="m386.26 331.59c0.01-0.16-19.99-0.2-21.78-0.2h-47.75-35.57-2.49c-0.1 0 0.08 0.35 0.08-0.01v-3.9-148.26-156.71c0-1.084 0.15-7.428-0.13-7.428h16.72 87.01 81.47 8.68c2.4 0 1.13 0.066 1.7-1.996-1.07 3.844-2.13 7.687-3.2 11.531-14.47 52.246-28.94 104.49-43.41 156.74-13.24 47.8-26.48 95.6-39.73 143.41-0.44 1.61-0.89 3.21-1.33 4.82-2.59 9.34 11.88 13.3 14.46 3.99 10.53-38.03 21.06-76.05 31.6-114.07 15.98-57.69 31.96-115.38 47.94-173.07 2.1-7.581 4.2-15.167 6.3-22.749 1.69-6.105 3.68-11.253-0.59-17.296-5.35-7.563-14.4-6.313-22.42-6.313-11.42 0.000031-22.84 0.000031-34.27 0.000031h-150.93c-8.21 0-14.87 6.8594-14.87 15.012v3.898 20.856 78.532 181.03 24.55c0 5.52-0.64 11.34 2.74 16.12 6.17 8.73 19.99 6.31 29.3 6.31h46.66 35.44 7.97c8.81 0 14.64-6.35 15.4-14.8 0.86-9.64-14.14-9.56-15 0" fill="inherit"/>
 </g>
</svg>